<svg width="20" height="20" viewBox="0 0 20 20" fill="none" xmlns="http://www.w3.org/2000/svg">
<g clip-path="url(#clip0_98_2819)">
<path d="M7.5 13.75H2.5C2.33424 13.75 2.17527 13.6842 2.05806 13.5669C1.94085 13.4497 1.875 13.2908 1.875 13.125V8.125C1.875 6.63316 2.46763 5.20242 3.52252 4.14752C4.57742 3.09263 6.00816 2.5 7.5 2.5C8.99184 2.5 10.4226 3.09263 11.4775 4.14752C12.5324 5.20242 13.125 6.63316 13.125 8.125C13.125 9.61684 12.5324 11.0476 11.4775 12.1025C10.4226 13.1574 8.99184 13.75 7.5 13.75Z" stroke="white" stroke-linecap="round" stroke-linejoin="round"/>
<path d="M7.19531 13.75C7.58313 14.8469 8.30154 15.7966 9.25158 16.4682C10.2016 17.1398 11.3365 17.5003 12.5 17.5H17.5C17.6658 17.5 17.8247 17.4342 17.9419 17.317C18.0592 17.1997 18.125 17.0408 18.125 16.875V11.875C18.125 10.4365 17.5738 9.05264 16.5848 8.008C15.5958 6.96336 14.2442 6.33733 12.8078 6.25861" stroke="white" stroke-linecap="round" stroke-linejoin="round"/>
</g>
<defs>
<clipPath id="clip0_98_2819">
<rect width="20" height="20" fill="white"/>
</clipPath>
</defs>
</svg>
