<svg width="11" height="11" viewBox="0 0 11 11" fill="none" xmlns="http://www.w3.org/2000/svg">
<g clip-path="url(#clip0_93_512)">
<path d="M8.9375 1.375H3.57973C3.48941 1.37471 3.39994 1.39238 3.31651 1.42698C3.23308 1.46157 3.15736 1.51241 3.09375 1.57653L1.57653 3.09375C1.51241 3.15736 1.46157 3.23308 1.42698 3.31651C1.39238 3.39994 1.37471 3.48941 1.375 3.57973V8.9375C1.375 9.11984 1.44744 9.29471 1.57637 9.42364C1.7053 9.55257 1.88017 9.625 2.0625 9.625H8.9375C9.11984 9.625 9.29471 9.55257 9.42364 9.42364C9.55257 9.29471 9.625 9.11984 9.625 8.9375V2.0625C9.625 1.88017 9.55257 1.7053 9.42364 1.57637C9.29471 1.44744 9.11984 1.375 8.9375 1.375ZM5.5 7.90625C5.22805 7.90625 4.96221 7.82561 4.73609 7.67452C4.50998 7.52344 4.33374 7.30869 4.22967 7.05744C4.1256 6.80619 4.09837 6.52973 4.15142 6.263C4.20448 5.99628 4.33543 5.75128 4.52773 5.55898C4.72003 5.36669 4.96503 5.23573 5.23175 5.18267C5.49848 5.12962 5.77495 5.15685 6.02619 5.26092C6.27744 5.36499 6.49219 5.54123 6.64327 5.76734C6.79436 5.99346 6.875 6.2593 6.875 6.53125C6.875 6.89593 6.73014 7.24566 6.47228 7.50353C6.21441 7.76139 5.86468 7.90625 5.5 7.90625ZM7.39063 3.4375C7.39063 3.48309 7.37252 3.5268 7.34029 3.55904C7.30805 3.59127 7.26434 3.60938 7.21875 3.60938H3.78125C3.73567 3.60938 3.69195 3.59127 3.65972 3.55904C3.62749 3.5268 3.60938 3.48309 3.60938 3.4375V2.0625H7.39063V3.4375Z" fill="white"/>
</g>
<defs>
<clipPath id="clip0_93_512">
<rect width="11" height="11" fill="white"/>
</clipPath>
</defs>
</svg>
