<svg width="35" height="23" viewBox="0 0 35 23" fill="none" xmlns="http://www.w3.org/2000/svg">
<rect x="4" y="4" width="27" height="15" rx="7.5" fill="#FF5151"/>
<path d="M8.48828 8.34375H9.80078V14H8.48828V8.34375ZM9.80469 10.3398L9.86328 10.4141H9.78516V8.34375H9.96484L12.2734 11.9961L12.1953 11.918H12.2734V14H12.1016L9.80469 10.3398ZM12.2578 8.34375H13.5703V14H12.2578V8.34375ZM14.343 8.34375H15.6555V14H14.343V8.34375ZM15.6398 12.7656H18.1008V14H15.6398V12.7656ZM15.6398 10.5703H17.8195V11.6797H15.6398V10.5703ZM15.6398 8.34375H18.0383V9.57812H15.6398V8.34375ZM18.4203 8.34375H19.8305L21.4477 14L20.4711 12.1914H21.4477V14H20.2328L18.4203 8.34375ZM22.0219 8.34375H22.9242L23.018 9.05078V10.5312H22.2055L23.018 9.05078L21.6078 14H20.4711L22.0219 8.34375ZM22.2055 9.05078L22.2992 8.34375H23.2055L24.7563 14L23.7797 12.1914H24.7563V14H23.6195L22.2055 9.05078ZM25.393 8.34375H26.807L24.9945 14H23.7797L25.393 8.34375Z" fill="white"/>
</svg>
