<svg width="20" height="20" viewBox="0 0 20 20" fill="none" xmlns="http://www.w3.org/2000/svg">
<g clip-path="url(#clip0_24_42)">
<path d="M8.125 16.875V11.875H11.875V16.875H16.875V9.375C16.8751 9.2929 16.859 9.21159 16.8276 9.13572C16.7962 9.05985 16.7502 8.9909 16.6922 8.93282L10.4422 2.68282C10.3841 2.62471 10.3152 2.57861 10.2393 2.54715C10.1635 2.5157 10.0821 2.49951 10 2.49951C9.91787 2.49951 9.83654 2.5157 9.76066 2.54715C9.68479 2.57861 9.61586 2.62471 9.55781 2.68282L3.30781 8.93282C3.24979 8.9909 3.20378 9.05985 3.17241 9.13572C3.14105 9.21159 3.12494 9.2929 3.125 9.375V16.875H8.125Z" stroke="white" stroke-linecap="round" stroke-linejoin="round"/>
</g>
<defs>
<clipPath id="clip0_24_42">
<rect width="20" height="20" fill="white"/>
</clipPath>
</defs>
</svg>
