<svg width="24" height="24" viewBox="0 0 24 24" fill="none" xmlns="http://www.w3.org/2000/svg">
<g clip-path="url(#clip0_74_29)">
<path d="M18.14 13.105C18.2439 13.0747 18.3351 13.0115 18.4 12.925C18.4649 12.8385 18.5 12.7332 18.5 12.625V10.375C18.5 10.2668 18.4649 10.1615 18.4 10.075C18.3351 9.98845 18.2439 9.92529 18.14 9.895L7.14 6.52C7.06548 6.49827 6.98693 6.49418 6.91056 6.50807C6.83419 6.52195 6.7621 6.55343 6.7 6.6C6.6379 6.64657 6.5875 6.70697 6.55279 6.77639C6.51807 6.84582 6.5 6.92238 6.5 7V16C6.5 16.0776 6.51807 16.1542 6.55279 16.2236C6.5875 16.293 6.6379 16.3534 6.7 16.4C6.7621 16.4466 6.83419 16.478 6.91056 16.4919C6.98693 16.5058 7.06548 16.5017 7.14 16.48L18.14 13.105Z" stroke="#00E984" stroke-linecap="round" stroke-linejoin="round"/>
<path d="M16 13.7612V16C16 16.1326 15.9473 16.2598 15.8536 16.3535C15.7598 16.4473 15.6326 16.5 15.5 16.5H13.5C13.3674 16.5 13.2402 16.4473 13.1464 16.3535C13.0527 16.2598 13 16.1326 13 16V8.31812" stroke="#00E984" stroke-linecap="round" stroke-linejoin="round"/>
</g>
<defs>
<clipPath id="clip0_74_29">
<rect width="16" height="16" fill="white" transform="translate(4 4)"/>
</clipPath>
</defs>
</svg>
