<svg width="91" height="28" viewBox="0 0 91 28" fill="none" xmlns="http://www.w3.org/2000/svg">
<path d="M2.1 21V7H7.56C8.78667 7 9.83333 7.19333 10.7 7.58C11.5667 7.96667 12.2333 8.52667 12.7 9.26C13.1667 9.99333 13.4 10.8667 13.4 11.88C13.4 12.8933 13.1667 13.7667 12.7 14.5C12.2333 15.22 11.5667 15.78 10.7 16.18C9.83333 16.5667 8.78667 16.76 7.56 16.76H3.2L4.1 15.82V21H2.1ZM4.1 16.02L3.2 15.02H7.5C8.78 15.02 9.74667 14.7467 10.4 14.2C11.0667 13.6533 11.4 12.88 11.4 11.88C11.4 10.88 11.0667 10.1067 10.4 9.56C9.74667 9.01333 8.78 8.74 7.5 8.74H3.2L4.1 7.74V16.02ZM21.0936 21.16C20.0269 21.16 19.0403 20.9867 18.1336 20.64C17.2403 20.28 16.4603 19.78 15.7936 19.14C15.1403 18.4867 14.6269 17.7267 14.2536 16.86C13.8803 15.9933 13.6936 15.04 13.6936 14C13.6936 12.96 13.8803 12.0067 14.2536 11.14C14.6269 10.2733 15.1469 9.52 15.8136 8.88C16.4803 8.22667 17.2603 7.72667 18.1536 7.38C19.0603 7.02 20.0469 6.84 21.1136 6.84C22.1936 6.84 23.1869 7.02667 24.0936 7.4C25.0136 7.76 25.7936 8.3 26.4336 9.02L25.1336 10.28C24.6003 9.72 24.0003 9.30667 23.3336 9.04C22.6669 8.76 21.9536 8.62 21.1936 8.62C20.4069 8.62 19.6736 8.75333 18.9936 9.02C18.3269 9.28667 17.7469 9.66 17.2536 10.14C16.7603 10.62 16.3736 11.1933 16.0936 11.86C15.8269 12.5133 15.6936 13.2267 15.6936 14C15.6936 14.7733 15.8269 15.4933 16.0936 16.16C16.3736 16.8133 16.7603 17.38 17.2536 17.86C17.7469 18.34 18.3269 18.7133 18.9936 18.98C19.6736 19.2467 20.4069 19.38 21.1936 19.38C21.9536 19.38 22.6669 19.2467 23.3336 18.98C24.0003 18.7 24.6003 18.2733 25.1336 17.7L26.4336 18.96C25.7936 19.68 25.0136 20.2267 24.0936 20.6C23.1869 20.9733 22.1869 21.16 21.0936 21.16ZM33.6138 21.16C32.5471 21.16 31.5538 20.98 30.6338 20.62C29.7271 20.26 28.9404 19.76 28.2738 19.12C27.6071 18.4667 27.0871 17.7067 26.7138 16.84C26.3404 15.9733 26.1538 15.0267 26.1538 14C26.1538 12.9733 26.3404 12.0267 26.7138 11.16C27.0871 10.2933 27.6071 9.54 28.2738 8.9C28.9404 8.24667 29.7271 7.74 30.6338 7.38C31.5404 7.02 32.5338 6.84 33.6138 6.84C34.6804 6.84 35.6604 7.02 36.5538 7.38C37.4604 7.72667 38.2471 8.22667 38.9138 8.88C39.5938 9.52 40.1138 10.2733 40.4738 11.14C40.8471 12.0067 41.0338 12.96 41.0338 14C41.0338 15.04 40.8471 15.9933 40.4738 16.86C40.1138 17.7267 39.5938 18.4867 38.9138 19.14C38.2471 19.78 37.4604 20.28 36.5538 20.64C35.6604 20.9867 34.6804 21.16 33.6138 21.16ZM33.6138 19.38C34.3871 19.38 35.1004 19.2467 35.7538 18.98C36.4204 18.7133 36.9938 18.34 37.4738 17.86C37.9671 17.3667 38.3471 16.7933 38.6138 16.14C38.8938 15.4867 39.0338 14.7733 39.0338 14C39.0338 13.2267 38.8938 12.5133 38.6138 11.86C38.3471 11.2067 37.9671 10.64 37.4738 10.16C36.9938 9.66667 36.4204 9.28667 35.7538 9.02C35.1004 8.75333 34.3871 8.62 33.6138 8.62C32.8271 8.62 32.1004 8.75333 31.4338 9.02C30.7804 9.28667 30.2071 9.66667 29.7138 10.16C29.2204 10.64 28.8338 11.2067 28.5538 11.86C28.2871 12.5133 28.1538 13.2267 28.1538 14C28.1538 14.7733 28.2871 15.4867 28.5538 16.14C28.8338 16.7933 29.2204 17.3667 29.7138 17.86C30.2071 18.34 30.7804 18.7133 31.4338 18.98C32.1004 19.2467 32.8271 19.38 33.6138 19.38ZM46.4706 21.16C45.404 21.16 44.384 21 43.4106 20.68C42.4373 20.3467 41.6706 19.92 41.1106 19.4L41.8506 17.84C42.384 18.3067 43.064 18.6933 43.8906 19C44.7173 19.3067 45.5773 19.46 46.4706 19.46C47.284 19.46 47.944 19.3667 48.4506 19.18C48.9573 18.9933 49.3306 18.74 49.5706 18.42C49.8106 18.0867 49.9306 17.7133 49.9306 17.3C49.9306 16.82 49.7706 16.4333 49.4506 16.14C49.144 15.8467 48.7373 15.6133 48.2306 15.44C47.7373 15.2533 47.1906 15.0933 46.5906 14.96C45.9906 14.8267 45.384 14.6733 44.7706 14.5C44.1706 14.3133 43.6173 14.08 43.1106 13.8C42.6173 13.52 42.2173 13.1467 41.9106 12.68C41.604 12.2 41.4506 11.5867 41.4506 10.84C41.4506 10.12 41.6373 9.46 42.0106 8.86C42.3973 8.24667 42.984 7.76 43.7706 7.4C44.5706 7.02667 45.584 6.84 46.8106 6.84C47.624 6.84 48.4306 6.94667 49.2306 7.16C50.0306 7.37333 50.724 7.68 51.3106 8.08L50.6506 9.68C50.0506 9.28 49.4173 8.99333 48.7506 8.82C48.084 8.63333 47.4373 8.54 46.8106 8.54C46.024 8.54 45.3773 8.64 44.8706 8.84C44.364 9.04 43.9906 9.30667 43.7506 9.64C43.524 9.97333 43.4106 10.3467 43.4106 10.76C43.4106 11.2533 43.564 11.6467 43.8706 11.94C44.1906 12.2333 44.5973 12.4667 45.0906 12.64C45.5973 12.8133 46.1506 12.9733 46.7506 13.12C47.3506 13.2533 47.9506 13.4067 48.5506 13.58C49.164 13.7533 49.7173 13.98 50.2106 14.26C50.7173 14.54 51.124 14.9133 51.4306 15.38C51.7373 15.8467 51.8906 16.4467 51.8906 17.18C51.8906 17.8867 51.6973 18.5467 51.3106 19.16C50.924 19.76 50.324 20.2467 49.5106 20.62C48.7106 20.98 47.6973 21.16 46.4706 21.16ZM53.1125 21V7H58.5725C59.7992 7 60.8458 7.19333 61.7125 7.58C62.5792 7.96667 63.2458 8.52667 63.7125 9.26C64.1792 9.99333 64.4125 10.8667 64.4125 11.88C64.4125 12.8933 64.1792 13.7667 63.7125 14.5C63.2458 15.22 62.5792 15.78 61.7125 16.18C60.8458 16.5667 59.7992 16.76 58.5725 16.76H54.2125L55.1125 15.82V21H53.1125ZM55.1125 16.02L54.2125 15.02H58.5125C59.7925 15.02 60.7592 14.7467 61.4125 14.2C62.0792 13.6533 62.4125 12.88 62.4125 11.88C62.4125 10.88 62.0792 10.1067 61.4125 9.56C60.7592 9.01333 59.7925 8.74 58.5125 8.74H54.2125L55.1125 7.74V16.02ZM72.1661 21.16C71.0994 21.16 70.1061 20.98 69.1861 20.62C68.2794 20.26 67.4928 19.76 66.8261 19.12C66.1594 18.4667 65.6394 17.7067 65.2661 16.84C64.8928 15.9733 64.7061 15.0267 64.7061 14C64.7061 12.9733 64.8928 12.0267 65.2661 11.16C65.6394 10.2933 66.1594 9.54 66.8261 8.9C67.4928 8.24667 68.2794 7.74 69.1861 7.38C70.0928 7.02 71.0861 6.84 72.1661 6.84C73.2328 6.84 74.2128 7.02 75.1061 7.38C76.0128 7.72667 76.7994 8.22667 77.4661 8.88C78.1461 9.52 78.6661 10.2733 79.0261 11.14C79.3994 12.0067 79.5861 12.96 79.5861 14C79.5861 15.04 79.3994 15.9933 79.0261 16.86C78.6661 17.7267 78.1461 18.4867 77.4661 19.14C76.7994 19.78 76.0128 20.28 75.1061 20.64C74.2128 20.9867 73.2328 21.16 72.1661 21.16ZM72.1661 19.38C72.9394 19.38 73.6528 19.2467 74.3061 18.98C74.9728 18.7133 75.5461 18.34 76.0261 17.86C76.5194 17.3667 76.8994 16.7933 77.1661 16.14C77.4461 15.4867 77.5861 14.7733 77.5861 14C77.5861 13.2267 77.4461 12.5133 77.1661 11.86C76.8994 11.2067 76.5194 10.64 76.0261 10.16C75.5461 9.66667 74.9728 9.28667 74.3061 9.02C73.6528 8.75333 72.9394 8.62 72.1661 8.62C71.3794 8.62 70.6528 8.75333 69.9861 9.02C69.3328 9.28667 68.7594 9.66667 68.2661 10.16C67.7728 10.64 67.3861 11.2067 67.1061 11.86C66.8394 12.5133 66.7061 13.2267 66.7061 14C66.7061 14.7733 66.8394 15.4867 67.1061 16.14C67.3861 16.7933 67.7728 17.3667 68.2661 17.86C68.7594 18.34 69.3328 18.7133 69.9861 18.98C70.6528 19.2467 71.3794 19.38 72.1661 19.38ZM83.5277 21V8.74H78.7277V7H90.3077V8.74H85.5077V21H83.5277Z" fill="#0EBF72"/>
</svg>
