<svg width="24" height="24" viewBox="0 0 24 24" fill="none" xmlns="http://www.w3.org/2000/svg">
<g clip-path="url(#clip0_83_347)">
<path d="M20.0781 5.46406C20.0781 5.46406 20.0781 5.47187 20.0781 5.47578L15.5312 20.4711C15.4624 20.7146 15.3208 20.9313 15.1253 21.0921C14.9297 21.2528 14.6898 21.3499 14.4375 21.3703C14.4016 21.3734 14.3656 21.375 14.3297 21.375C14.0933 21.3757 13.8616 21.3088 13.662 21.1822C13.4624 21.0555 13.3031 20.8744 13.2031 20.6602L10.3594 14.8242C10.3309 14.7657 10.3214 14.6998 10.3322 14.6357C10.343 14.5715 10.3735 14.5124 10.4195 14.4664L14.9445 9.9414C15.0568 9.82324 15.1185 9.66589 15.1164 9.50292C15.1143 9.33994 15.0486 9.18423 14.9334 9.06898C14.8181 8.95373 14.6624 8.88806 14.4994 8.88597C14.3364 8.88388 14.1791 8.94554 14.0609 9.05781L9.53359 13.5828C9.48763 13.6288 9.42845 13.6594 9.36431 13.6701C9.30017 13.6809 9.23426 13.6714 9.17578 13.643L3.33437 10.8C3.10595 10.6904 2.91622 10.514 2.79032 10.2941C2.66443 10.0743 2.60831 9.82137 2.6294 9.5689C2.6505 9.31643 2.74781 9.07633 2.90845 8.88042C3.06909 8.6845 3.28546 8.54203 3.5289 8.47187L18.5242 3.92499H18.5359C18.7494 3.86501 18.9751 3.86291 19.1896 3.9189C19.4042 3.9749 19.6 4.08697 19.757 4.24362C19.914 4.40028 20.0265 4.59587 20.0829 4.81034C20.1393 5.02481 20.1377 5.25043 20.0781 5.46406Z" fill="#00E984"/>
</g>
<defs>
<clipPath id="clip0_83_347">
<rect width="20" height="20" fill="white" transform="translate(2 2)"/>
</clipPath>
</defs>
</svg>
