<svg width="24" height="24" viewBox="0 0 24 24" fill="none" xmlns="http://www.w3.org/2000/svg">
<g clip-path="url(#clip0_74_153)">
<path d="M12 14.5C13.3807 14.5 14.5 13.3807 14.5 12C14.5 10.6193 13.3807 9.5 12 9.5C10.6193 9.5 9.5 10.6193 9.5 12C9.5 13.3807 10.6193 14.5 12 14.5Z" stroke="white" stroke-linecap="round" stroke-linejoin="round"/>
<path d="M6.58934 15.1306C6.31307 14.6548 6.10142 14.1442 5.95996 13.6125L7.00871 12.3C6.99684 12.0993 6.99684 11.8982 7.00871 11.6975L5.96059 10.385C6.1018 9.85318 6.31302 9.34247 6.58871 8.86626L8.25809 8.67876C8.39139 8.52857 8.53352 8.38644 8.68371 8.25313L8.87121 6.58438C9.34674 6.31 9.85662 6.10004 10.3875 5.96001L11.7 7.00876C11.9006 6.99688 12.1018 6.99688 12.3025 7.00876L13.615 5.96063C14.1468 6.10184 14.6575 6.31307 15.1337 6.58876L15.3212 8.25813C15.4714 8.39144 15.6135 8.53357 15.7468 8.68376L17.4156 8.87126C17.6919 9.34711 17.9035 9.85764 18.045 10.3894L16.9962 11.7019C17.0081 11.9025 17.0081 12.1037 16.9962 12.3044L18.0443 13.6169C17.9041 14.1486 17.6939 14.6593 17.4193 15.1356L15.75 15.3231C15.6167 15.4733 15.4745 15.6154 15.3243 15.7488L15.1368 17.4175C14.661 17.6938 14.1505 17.9054 13.6187 18.0469L12.3062 16.9981C12.1056 17.01 11.9044 17.01 11.7037 16.9981L10.3912 18.0463C9.85954 17.906 9.34883 17.6959 8.87246 17.4213L8.68496 15.7519C8.53477 15.6186 8.39264 15.4764 8.25934 15.3263L6.58934 15.1306Z" stroke="white" stroke-linecap="round" stroke-linejoin="round"/>
</g>
<defs>
<clipPath id="clip0_74_153">
<rect width="16" height="16" fill="white" transform="translate(4 4)"/>
</clipPath>
</defs>
</svg>
